<svg width="30" height="32" viewBox="0 0 30 32" fill="none" xmlns="http://www.w3.org/2000/svg">
<path d="M13.4934 28.6666C13.5818 28.6666 13.6666 28.6315 13.7291 28.569C13.7916 28.5065 13.8268 28.4217 13.8268 28.3333V24.3333C13.8286 24.289 13.8213 24.2448 13.8052 24.2035C13.7892 24.1622 13.7647 24.1247 13.7333 24.0934C13.702 24.062 13.6645 24.0375 13.6232 24.0215C13.5819 24.0054 13.5377 23.998 13.4934 23.9999C7.7201 23.9999 3.4801 22.4666 1.37343 20.7866C1.32239 20.7516 1.26197 20.7329 1.2001 20.7329C1.13823 20.7329 1.0778 20.7516 1.02676 20.7866C0.970687 20.8123 0.923234 20.8537 0.890116 20.9057C0.856999 20.9577 0.839629 21.0182 0.840097 21.0799V23.3333C0.840097 26.4266 6.85343 28.6666 13.4934 28.6666Z" fill="black"/>
<path d="M13.4934 28.6666C13.5818 28.6666 13.6666 28.6315 13.7291 28.569C13.7916 28.5065 13.8268 28.4217 13.8268 28.3333V24.3333C13.8286 24.289 13.8213 24.2448 13.8052 24.2035C13.7892 24.1622 13.7647 24.1247 13.7333 24.0934C13.702 24.062 13.6645 24.0375 13.6232 24.0215C13.5819 24.0054 13.5377 23.998 13.4934 23.9999C7.7201 23.9999 3.4801 22.4666 1.37343 20.7866C1.32239 20.7516 1.26197 20.7329 1.2001 20.7329C1.13823 20.7329 1.0778 20.7516 1.02676 20.7866C0.970687 20.8123 0.923234 20.8537 0.890116 20.9057C0.856999 20.9577 0.839629 21.0182 0.840097 21.0799V23.3333C0.840097 26.4266 6.85343 28.6666 13.4934 28.6666Z" fill="url(#paint0_linear_467_911)"/>
<path d="M15.5068 17.9333C14.8401 17.9333 14.1734 17.9999 13.5068 17.9999C8.82676 17.9999 3.9601 16.8933 1.37343 14.7866C1.32175 14.7533 1.26158 14.7356 1.2001 14.7356C1.13862 14.7356 1.07844 14.7533 1.02676 14.7866C0.970687 14.8123 0.923234 14.8537 0.890116 14.9057C0.856999 14.9578 0.839629 15.0183 0.840097 15.0799V17.3333C0.840097 20.4266 6.85343 22.6666 13.4934 22.6666C13.5818 22.6666 13.6666 22.6315 13.7291 22.569C13.7916 22.5065 13.8268 22.4217 13.8268 22.3333V21.3333C13.829 20.782 14.0019 20.245 14.3219 19.7961C14.6418 19.3472 15.0931 19.0085 15.6134 18.8266C15.676 18.8056 15.731 18.7666 15.7713 18.7144C15.8117 18.6621 15.8356 18.5991 15.8401 18.5333C15.8342 18.4578 15.8342 18.382 15.8401 18.3066C15.8487 18.259 15.846 18.21 15.8321 18.1637C15.8182 18.1173 15.7935 18.0749 15.7601 18.0399C15.7284 18.0045 15.6893 17.9765 15.6455 17.958C15.6016 17.9396 15.5543 17.9311 15.5068 17.9333Z" fill="black"/>
<path d="M15.5068 17.9333C14.8401 17.9333 14.1734 17.9999 13.5068 17.9999C8.82676 17.9999 3.9601 16.8933 1.37343 14.7866C1.32175 14.7533 1.26158 14.7356 1.2001 14.7356C1.13862 14.7356 1.07844 14.7533 1.02676 14.7866C0.970687 14.8123 0.923234 14.8537 0.890116 14.9057C0.856999 14.9578 0.839629 15.0183 0.840097 15.0799V17.3333C0.840097 20.4266 6.85343 22.6666 13.4934 22.6666C13.5818 22.6666 13.6666 22.6315 13.7291 22.569C13.7916 22.5065 13.8268 22.4217 13.8268 22.3333V21.3333C13.829 20.782 14.0019 20.245 14.3219 19.7961C14.6418 19.3472 15.0931 19.0085 15.6134 18.8266C15.676 18.8056 15.731 18.7666 15.7713 18.7144C15.8117 18.6621 15.8356 18.5991 15.8401 18.5333C15.8342 18.4578 15.8342 18.382 15.8401 18.3066C15.8487 18.259 15.846 18.21 15.8321 18.1637C15.8182 18.1173 15.7935 18.0749 15.7601 18.0399C15.7284 18.0045 15.6893 17.9765 15.6455 17.958C15.6016 17.9396 15.5543 17.9311 15.5068 17.9333Z" fill="url(#paint1_linear_467_911)"/>
<path d="M25.3868 12.6933C25.4637 12.7286 25.551 12.7346 25.632 12.71C25.7131 12.6855 25.7824 12.6321 25.8268 12.5599C26.0428 12.1864 26.162 11.7647 26.1734 11.3333V9.05328C26.1737 8.98822 26.1548 8.92452 26.1193 8.87003C26.0838 8.81553 26.0331 8.77263 25.9734 8.74661C25.9212 8.71482 25.8612 8.698 25.8001 8.698C25.739 8.698 25.679 8.71482 25.6268 8.74661C23.0001 10.8933 18.1734 11.9999 13.5068 11.9999C8.8401 11.9999 3.9601 10.8933 1.37343 8.78661C1.32175 8.75331 1.26158 8.7356 1.2001 8.7356C1.13862 8.7356 1.07844 8.75331 1.02676 8.78661C0.970687 8.81231 0.923234 8.85367 0.890116 8.90571C0.856999 8.95775 0.839629 9.01826 0.840097 9.07994V11.3333C0.840097 14.2799 6.50676 16.6666 13.5068 16.6666C14.3601 16.6666 15.1868 16.6666 16.0001 16.5599C16.062 16.5541 16.1211 16.531 16.1706 16.4932C16.22 16.4555 16.258 16.4048 16.2801 16.3466C16.7515 15.0766 17.5986 13.9804 18.7086 13.2039C19.8186 12.4273 21.1388 12.0074 22.4934 11.9999C23.4982 12.0064 24.4882 12.2436 25.3868 12.6933Z" fill="black"/>
<path d="M25.3868 12.6933C25.4637 12.7286 25.551 12.7346 25.632 12.71C25.7131 12.6855 25.7824 12.6321 25.8268 12.5599C26.0428 12.1864 26.162 11.7647 26.1734 11.3333V9.05328C26.1737 8.98822 26.1548 8.92452 26.1193 8.87003C26.0838 8.81553 26.0331 8.77263 25.9734 8.74661C25.9212 8.71482 25.8612 8.698 25.8001 8.698C25.739 8.698 25.679 8.71482 25.6268 8.74661C23.0001 10.8933 18.1734 11.9999 13.5068 11.9999C8.8401 11.9999 3.9601 10.8933 1.37343 8.78661C1.32175 8.75331 1.26158 8.7356 1.2001 8.7356C1.13862 8.7356 1.07844 8.75331 1.02676 8.78661C0.970687 8.81231 0.923234 8.85367 0.890116 8.90571C0.856999 8.95775 0.839629 9.01826 0.840097 9.07994V11.3333C0.840097 14.2799 6.50676 16.6666 13.5068 16.6666C14.3601 16.6666 15.1868 16.6666 16.0001 16.5599C16.062 16.5541 16.1211 16.531 16.1706 16.4932C16.22 16.4555 16.258 16.4048 16.2801 16.3466C16.7515 15.0766 17.5986 13.9804 18.7086 13.2039C19.8186 12.4273 21.1388 12.0074 22.4934 11.9999C23.4982 12.0064 24.4882 12.2436 25.3868 12.6933Z" fill="url(#paint2_linear_467_911)"/>
<path d="M0.840088 5.33333C0.840088 6.74782 2.17461 8.10438 4.55007 9.10457C6.92553 10.1048 10.1473 10.6667 13.5068 10.6667C16.8662 10.6667 20.088 10.1048 22.4634 9.10457C24.8389 8.10438 26.1734 6.74782 26.1734 5.33333C26.1734 3.91885 24.8389 2.56229 22.4634 1.5621C20.088 0.561903 16.8662 0 13.5068 0C10.1473 0 6.92553 0.561903 4.55007 1.5621C2.17461 2.56229 0.840088 3.91885 0.840088 5.33333Z" fill="black"/>
<path d="M0.840088 5.33333C0.840088 6.74782 2.17461 8.10438 4.55007 9.10457C6.92553 10.1048 10.1473 10.6667 13.5068 10.6667C16.8662 10.6667 20.088 10.1048 22.4634 9.10457C24.8389 8.10438 26.1734 6.74782 26.1734 5.33333C26.1734 3.91885 24.8389 2.56229 22.4634 1.5621C20.088 0.561903 16.8662 0 13.5068 0C10.1473 0 6.92553 0.561903 4.55007 1.5621C2.17461 2.56229 0.840088 3.91885 0.840088 5.33333Z" fill="url(#paint3_linear_467_911)"/>
<path d="M27.4531 20.6801C27.374 20.6706 27.301 20.6331 27.2472 20.5744C27.1934 20.5157 27.1624 20.4397 27.1598 20.3601V19.0268C27.1598 17.7891 26.6681 16.6021 25.7929 15.7269C24.9177 14.8518 23.7308 14.3601 22.4931 14.3601C21.2554 14.3601 20.0684 14.8518 19.1933 15.7269C18.3181 16.6021 17.8264 17.7891 17.8264 19.0268V20.3601C17.827 20.4385 17.7989 20.5144 17.7473 20.5733C17.6956 20.6323 17.6242 20.6703 17.5464 20.6801C17.0693 20.7504 16.6333 20.9895 16.3176 21.3541C16.002 21.7187 15.8277 22.1845 15.8264 22.6668V30.0001C15.8264 30.5305 16.0371 31.0392 16.4122 31.4143C16.7873 31.7894 17.296 32.0001 17.8264 32.0001H27.1598C27.6902 32.0001 28.1989 31.7894 28.574 31.4143C28.949 31.0392 29.1598 30.5305 29.1598 30.0001V22.6668C29.159 22.1865 28.9866 21.7223 28.6736 21.358C28.3606 20.9937 27.9278 20.7533 27.4531 20.6801ZM21.1598 27.0001C21.1598 26.7364 21.2379 26.4786 21.3845 26.2593C21.531 26.0401 21.7392 25.8692 21.9828 25.7683C22.2265 25.6674 22.4946 25.6409 22.7532 25.6924C23.0118 25.7438 23.2494 25.8708 23.4359 26.0573C23.6224 26.2438 23.7494 26.4813 23.8008 26.74C23.8522 26.9986 23.8258 27.2667 23.7249 27.5104C23.624 27.754 23.4531 27.9622 23.2338 28.1087C23.0146 28.2552 22.7568 28.3334 22.4931 28.3334C22.1395 28.3334 21.8003 28.193 21.5503 27.9429C21.3002 27.6929 21.1598 27.3537 21.1598 27.0001ZM20.4931 19.0001C20.4931 18.4697 20.7038 17.961 21.0789 17.5859C21.4539 17.2108 21.9627 17.0001 22.4931 17.0001C23.0235 17.0001 23.5322 17.2108 23.9073 17.5859C24.2824 17.961 24.4931 18.4697 24.4931 19.0001V20.3334C24.4931 20.4218 24.458 20.5066 24.3955 20.5691C24.3329 20.6317 24.2482 20.6668 24.1598 20.6668H20.8264C20.738 20.6668 20.6532 20.6317 20.5907 20.5691C20.5282 20.5066 20.4931 20.4218 20.4931 20.3334V19.0001Z" fill="black"/>
<path d="M27.4531 20.6801C27.374 20.6706 27.301 20.6331 27.2472 20.5744C27.1934 20.5157 27.1624 20.4397 27.1598 20.3601V19.0268C27.1598 17.7891 26.6681 16.6021 25.7929 15.7269C24.9177 14.8518 23.7308 14.3601 22.4931 14.3601C21.2554 14.3601 20.0684 14.8518 19.1933 15.7269C18.3181 16.6021 17.8264 17.7891 17.8264 19.0268V20.3601C17.827 20.4385 17.7989 20.5144 17.7473 20.5733C17.6956 20.6323 17.6242 20.6703 17.5464 20.6801C17.0693 20.7504 16.6333 20.9895 16.3176 21.3541C16.002 21.7187 15.8277 22.1845 15.8264 22.6668V30.0001C15.8264 30.5305 16.0371 31.0392 16.4122 31.4143C16.7873 31.7894 17.296 32.0001 17.8264 32.0001H27.1598C27.6902 32.0001 28.1989 31.7894 28.574 31.4143C28.949 31.0392 29.1598 30.5305 29.1598 30.0001V22.6668C29.159 22.1865 28.9866 21.7223 28.6736 21.358C28.3606 20.9937 27.9278 20.7533 27.4531 20.6801ZM21.1598 27.0001C21.1598 26.7364 21.2379 26.4786 21.3845 26.2593C21.531 26.0401 21.7392 25.8692 21.9828 25.7683C22.2265 25.6674 22.4946 25.6409 22.7532 25.6924C23.0118 25.7438 23.2494 25.8708 23.4359 26.0573C23.6224 26.2438 23.7494 26.4813 23.8008 26.74C23.8522 26.9986 23.8258 27.2667 23.7249 27.5104C23.624 27.754 23.4531 27.9622 23.2338 28.1087C23.0146 28.2552 22.7568 28.3334 22.4931 28.3334C22.1395 28.3334 21.8003 28.193 21.5503 27.9429C21.3002 27.6929 21.1598 27.3537 21.1598 27.0001ZM20.4931 19.0001C20.4931 18.4697 20.7038 17.961 21.0789 17.5859C21.4539 17.2108 21.9627 17.0001 22.4931 17.0001C23.0235 17.0001 23.5322 17.2108 23.9073 17.5859C24.2824 17.961 24.4931 18.4697 24.4931 19.0001V20.3334C24.4931 20.4218 24.458 20.5066 24.3955 20.5691C24.3329 20.6317 24.2482 20.6668 24.1598 20.6668H20.8264C20.738 20.6668 20.6532 20.6317 20.5907 20.5691C20.5282 20.5066 20.4931 20.4218 20.4931 20.3334V19.0001Z" fill="url(#paint4_linear_467_911)"/>
<defs>
<linearGradient id="paint0_linear_467_911" x1="29.195" y1="12.5573" x2="-6.16182" y2="18.7112" gradientUnits="userSpaceOnUse">
<stop/>
<stop offset="0.325" stop-color="#A80601"/>
<stop offset="0.785" stop-color="#EE5A02"/>
<stop offset="1" stop-color="#DDB28F"/>
</linearGradient>
<linearGradient id="paint1_linear_467_911" x1="33.6009" y1="6.56278" x2="-6.85039" y2="14.7001" gradientUnits="userSpaceOnUse">
<stop/>
<stop offset="0.325" stop-color="#A80601"/>
<stop offset="0.785" stop-color="#EE5A02"/>
<stop offset="1" stop-color="#DDB28F"/>
</linearGradient>
<linearGradient id="paint2_linear_467_911" x1="56.1512" y1="0.486437" x2="-7.62086" y2="22.0433" gradientUnits="userSpaceOnUse">
<stop/>
<stop offset="0.325" stop-color="#A80601"/>
<stop offset="0.785" stop-color="#EE5A02"/>
<stop offset="1" stop-color="#DDB28F"/>
</linearGradient>
<linearGradient id="paint3_linear_467_911" x1="56.1512" y1="-10.9919" x2="-10.6479" y2="5.87672" gradientUnits="userSpaceOnUse">
<stop/>
<stop offset="0.325" stop-color="#A80601"/>
<stop offset="0.785" stop-color="#EE5A02"/>
<stop offset="1" stop-color="#DDB28F"/>
</linearGradient>
<linearGradient id="paint4_linear_467_911" x1="44.9375" y1="-3.81771" x2="7.77812" y2="-0.831268" gradientUnits="userSpaceOnUse">
<stop/>
<stop offset="0.325" stop-color="#A80601"/>
<stop offset="0.785" stop-color="#EE5A02"/>
<stop offset="1" stop-color="#DDB28F"/>
</linearGradient>
</defs>
</svg>
