<svg width="32" height="32" viewBox="0 0 32 32" fill="none" xmlns="http://www.w3.org/2000/svg">
<path d="M32 16C32 12.8355 31.0616 9.74207 29.3035 7.11088C27.5454 4.4797 25.0466 2.42894 22.1229 1.21793C19.1993 0.00693258 15.9823 -0.309921 12.8786 0.307443C9.77487 0.924806 6.92394 2.44866 4.6863 4.6863C2.44866 6.92394 0.924806 9.77487 0.307443 12.8786C-0.309921 15.9823 0.00693258 19.1993 1.21793 22.1229C2.42894 25.0466 4.4797 27.5454 7.11088 29.3035C9.74207 31.0616 12.8355 32 16 32H16.16C20.36 31.9965 24.3869 30.3265 27.3567 27.3567C30.3265 24.3869 31.9965 20.36 32 16.16V16ZM29.3333 16C29.3308 17.1851 29.1694 18.3645 28.8533 19.5067C28.83 19.5987 28.7869 19.6846 28.7271 19.7582C28.6672 19.8319 28.592 19.8917 28.5067 19.9333C28.3529 20.0206 28.1711 20.0445 28 20C27.1743 19.6445 26.47 19.056 25.9733 18.3067L23.0133 13.8667C22.7085 13.4109 22.2959 13.0374 21.8121 12.7792C21.3283 12.5211 20.7883 12.3862 20.24 12.3867H19.6667C18.6942 12.3867 17.7616 12.0004 17.0739 11.3127C16.3863 10.6251 16 9.69247 16 8.72001C16 7.74755 16.3863 6.81492 17.0739 6.12728C17.7616 5.43965 18.6942 5.05334 19.6667 5.05334H23.36C23.4985 5.05045 23.6342 5.09255 23.7467 5.17334C25.4711 6.4043 26.8773 8.02847 27.8489 9.91128C28.8204 11.7941 29.3293 13.8813 29.3333 16ZM2.90667 13.5467C2.93218 13.3925 3.01212 13.2525 3.13199 13.1522C3.25186 13.0519 3.40372 12.9979 3.56001 13H9.33334C9.94337 12.9921 10.5489 13.1059 11.1144 13.3348C11.6799 13.5638 12.194 13.9032 12.6267 14.3333L14.1333 15.8667C14.9747 16.7085 15.4627 17.8399 15.4974 19.0296C15.5321 20.2193 15.1109 21.3773 14.32 22.2667L12.5067 24.3067C11.9642 24.9162 11.6652 25.7041 11.6667 26.52V27.6267C11.6677 27.7385 11.6401 27.8486 11.5864 27.9467C11.5327 28.0447 11.4548 28.1274 11.36 28.1867C11.2629 28.2359 11.1555 28.2615 11.0467 28.2615C10.9378 28.2615 10.8305 28.2359 10.7333 28.1867C8.34832 27.1612 6.31454 25.4618 4.88159 23.297C3.44863 21.1322 2.67884 18.5961 2.66667 16C2.66463 15.1763 2.74503 14.3544 2.90667 13.5467Z" fill="black"/>
<path d="M32 16C32 12.8355 31.0616 9.74207 29.3035 7.11088C27.5454 4.4797 25.0466 2.42894 22.1229 1.21793C19.1993 0.00693258 15.9823 -0.309921 12.8786 0.307443C9.77487 0.924806 6.92394 2.44866 4.6863 4.6863C2.44866 6.92394 0.924806 9.77487 0.307443 12.8786C-0.309921 15.9823 0.00693258 19.1993 1.21793 22.1229C2.42894 25.0466 4.4797 27.5454 7.11088 29.3035C9.74207 31.0616 12.8355 32 16 32H16.16C20.36 31.9965 24.3869 30.3265 27.3567 27.3567C30.3265 24.3869 31.9965 20.36 32 16.16V16ZM29.3333 16C29.3308 17.1851 29.1694 18.3645 28.8533 19.5067C28.83 19.5987 28.7869 19.6846 28.7271 19.7582C28.6672 19.8319 28.592 19.8917 28.5067 19.9333C28.3529 20.0206 28.1711 20.0445 28 20C27.1743 19.6445 26.47 19.056 25.9733 18.3067L23.0133 13.8667C22.7085 13.4109 22.2959 13.0374 21.8121 12.7792C21.3283 12.5211 20.7883 12.3862 20.24 12.3867H19.6667C18.6942 12.3867 17.7616 12.0004 17.0739 11.3127C16.3863 10.6251 16 9.69247 16 8.72001C16 7.74755 16.3863 6.81492 17.0739 6.12728C17.7616 5.43965 18.6942 5.05334 19.6667 5.05334H23.36C23.4985 5.05045 23.6342 5.09255 23.7467 5.17334C25.4711 6.4043 26.8773 8.02847 27.8489 9.91128C28.8204 11.7941 29.3293 13.8813 29.3333 16ZM2.90667 13.5467C2.93218 13.3925 3.01212 13.2525 3.13199 13.1522C3.25186 13.0519 3.40372 12.9979 3.56001 13H9.33334C9.94337 12.9921 10.5489 13.1059 11.1144 13.3348C11.6799 13.5638 12.194 13.9032 12.6267 14.3333L14.1333 15.8667C14.9747 16.7085 15.4627 17.8399 15.4974 19.0296C15.5321 20.2193 15.1109 21.3773 14.32 22.2667L12.5067 24.3067C11.9642 24.9162 11.6652 25.7041 11.6667 26.52V27.6267C11.6677 27.7385 11.6401 27.8486 11.5864 27.9467C11.5327 28.0447 11.4548 28.1274 11.36 28.1867C11.2629 28.2359 11.1555 28.2615 11.0467 28.2615C10.9378 28.2615 10.8305 28.2359 10.7333 28.1867C8.34832 27.1612 6.31454 25.4618 4.88159 23.297C3.44863 21.1322 2.67884 18.5961 2.66667 16C2.66463 15.1763 2.74503 14.3544 2.90667 13.5467Z" fill="url(#paint0_linear_467_901)"/>
<defs>
<linearGradient id="paint0_linear_467_901" x1="69.8667" y1="-32.9756" x2="-18.8885" y2="-23.5385" gradientUnits="userSpaceOnUse">
<stop/>
<stop offset="0.325" stop-color="#A80601"/>
<stop offset="0.785" stop-color="#EE5A02"/>
<stop offset="1" stop-color="#DDB28F"/>
</linearGradient>
</defs>
</svg>
