<svg width="32" height="32" viewBox="0 0 32 32" fill="none" xmlns="http://www.w3.org/2000/svg">
<path fill-rule="evenodd" clip-rule="evenodd" d="M17.3333 1.33333C17.3333 0.596953 16.7364 0 16 0C15.2636 0 14.6667 0.596953 14.6667 1.33333V2.66667C14.6667 3.40304 15.2636 4 16 4C16.7364 4 17.3333 3.40304 17.3333 2.66667V1.33333ZM17.3333 26.9785C17.3333 26.2421 16.7364 25.6452 16 25.6452C15.2636 25.6452 14.6667 26.2421 14.6667 26.9785V30.6667C14.6667 31.4031 15.2636 32 16 32C16.7364 32 17.3333 31.4031 17.3333 30.6667V26.9785ZM6.29167 16C6.29167 16.7364 5.69471 17.3333 4.95833 17.3333H1.33333C0.596953 17.3333 0 16.7364 0 16C0 15.2636 0.596953 14.6667 1.33333 14.6667H4.95833C5.69471 14.6667 6.29167 15.2636 6.29167 16ZM30.6667 17.3333C31.4031 17.3333 32 16.7364 32 16C32 15.2636 31.4031 14.6667 30.6667 14.6667H27.0416C26.3053 14.6667 25.7083 15.2636 25.7083 16C25.7083 16.7364 26.3053 17.3333 27.0416 17.3333H30.6667ZM4.45205 29.2657C3.93135 28.7451 3.93135 27.9008 4.45205 27.3801L7.14052 24.6916C7.66123 24.1709 8.50544 24.1709 9.02615 24.6916C9.54684 25.2123 9.54684 26.0565 9.02615 26.5772L6.33767 29.2657C5.81697 29.7864 4.97275 29.7864 4.45205 29.2657ZM27.548 4.97405C28.0687 4.45336 28.0687 3.60915 27.548 3.08844C27.0272 2.56775 26.1831 2.56775 25.6623 3.08844L22.9739 5.77692C22.4532 6.29761 22.4532 7.14184 22.9739 7.66253C23.4945 8.18324 24.3388 8.18324 24.8595 7.66253L27.548 4.97405ZM4.45205 3.08844C3.93135 3.60915 3.93135 4.45336 4.45205 4.97405L7.14052 7.66253C7.66123 8.18324 8.50544 8.18324 9.02615 7.66253C9.54684 7.14184 9.54684 6.29761 9.02615 5.77692L6.33767 3.08844C5.81697 2.56775 4.97275 2.56775 4.45205 3.08844ZM27.548 27.026C28.0687 27.5467 28.0687 28.3908 27.548 28.9116C27.0272 29.4323 26.1831 29.4323 25.6623 28.9116L22.9739 26.2231C22.4532 25.7024 22.4532 24.8581 22.9739 24.3375C23.4945 23.8168 24.3388 23.8168 24.8595 24.3375L27.548 27.026ZM14.8043 6.04793C14.9877 5.68105 15.3607 5.25588 16.0005 5.25651C16.6391 5.25713 17.0112 5.68144 17.1944 6.04793L19.5412 10.7403L24.0264 11.1893C24.4356 11.2303 24.8955 11.4379 25.1255 11.9442C25.3803 12.5053 25.1925 13.0668 24.8352 13.424L21.0971 17.1609L22.4853 22.2472C22.6068 22.6921 22.5168 23.2077 22.1143 23.5725C21.6784 23.9676 21.0985 23.9892 20.6407 23.7601L16.0001 21.4393L11.3981 23.7433C10.9865 23.9493 10.3935 24.0241 9.89876 23.5872C9.41581 23.1607 9.42268 22.5919 9.5306 22.196L10.903 17.1609L7.184 13.4407C6.88393 13.1406 6.63173 12.6548 6.82227 12.0755C7.02021 11.4737 7.54048 11.2301 7.98815 11.1853L12.4587 10.7378L14.8043 6.04793Z" fill="black"/>
<path fill-rule="evenodd" clip-rule="evenodd" d="M17.3333 1.33333C17.3333 0.596953 16.7364 0 16 0C15.2636 0 14.6667 0.596953 14.6667 1.33333V2.66667C14.6667 3.40304 15.2636 4 16 4C16.7364 4 17.3333 3.40304 17.3333 2.66667V1.33333ZM17.3333 26.9785C17.3333 26.2421 16.7364 25.6452 16 25.6452C15.2636 25.6452 14.6667 26.2421 14.6667 26.9785V30.6667C14.6667 31.4031 15.2636 32 16 32C16.7364 32 17.3333 31.4031 17.3333 30.6667V26.9785ZM6.29167 16C6.29167 16.7364 5.69471 17.3333 4.95833 17.3333H1.33333C0.596953 17.3333 0 16.7364 0 16C0 15.2636 0.596953 14.6667 1.33333 14.6667H4.95833C5.69471 14.6667 6.29167 15.2636 6.29167 16ZM30.6667 17.3333C31.4031 17.3333 32 16.7364 32 16C32 15.2636 31.4031 14.6667 30.6667 14.6667H27.0416C26.3053 14.6667 25.7083 15.2636 25.7083 16C25.7083 16.7364 26.3053 17.3333 27.0416 17.3333H30.6667ZM4.45205 29.2657C3.93135 28.7451 3.93135 27.9008 4.45205 27.3801L7.14052 24.6916C7.66123 24.1709 8.50544 24.1709 9.02615 24.6916C9.54684 25.2123 9.54684 26.0565 9.02615 26.5772L6.33767 29.2657C5.81697 29.7864 4.97275 29.7864 4.45205 29.2657ZM27.548 4.97405C28.0687 4.45336 28.0687 3.60915 27.548 3.08844C27.0272 2.56775 26.1831 2.56775 25.6623 3.08844L22.9739 5.77692C22.4532 6.29761 22.4532 7.14184 22.9739 7.66253C23.4945 8.18324 24.3388 8.18324 24.8595 7.66253L27.548 4.97405ZM4.45205 3.08844C3.93135 3.60915 3.93135 4.45336 4.45205 4.97405L7.14052 7.66253C7.66123 8.18324 8.50544 8.18324 9.02615 7.66253C9.54684 7.14184 9.54684 6.29761 9.02615 5.77692L6.33767 3.08844C5.81697 2.56775 4.97275 2.56775 4.45205 3.08844ZM27.548 27.026C28.0687 27.5467 28.0687 28.3908 27.548 28.9116C27.0272 29.4323 26.1831 29.4323 25.6623 28.9116L22.9739 26.2231C22.4532 25.7024 22.4532 24.8581 22.9739 24.3375C23.4945 23.8168 24.3388 23.8168 24.8595 24.3375L27.548 27.026ZM14.8043 6.04793C14.9877 5.68105 15.3607 5.25588 16.0005 5.25651C16.6391 5.25713 17.0112 5.68144 17.1944 6.04793L19.5412 10.7403L24.0264 11.1893C24.4356 11.2303 24.8955 11.4379 25.1255 11.9442C25.3803 12.5053 25.1925 13.0668 24.8352 13.424L21.0971 17.1609L22.4853 22.2472C22.6068 22.6921 22.5168 23.2077 22.1143 23.5725C21.6784 23.9676 21.0985 23.9892 20.6407 23.7601L16.0001 21.4393L11.3981 23.7433C10.9865 23.9493 10.3935 24.0241 9.89876 23.5872C9.41581 23.1607 9.42268 22.5919 9.5306 22.196L10.903 17.1609L7.184 13.4407C6.88393 13.1406 6.63173 12.6548 6.82227 12.0755C7.02021 11.4737 7.54048 11.2301 7.98815 11.1853L12.4587 10.7378L14.8043 6.04793Z" fill="url(#paint0_linear_467_930)"/>
<defs>
<linearGradient id="paint0_linear_467_930" x1="69.8667" y1="-32.9756" x2="-18.8885" y2="-23.5385" gradientUnits="userSpaceOnUse">
<stop/>
<stop offset="0.325" stop-color="#A80601"/>
<stop offset="0.785" stop-color="#EE5A02"/>
<stop offset="1" stop-color="#DDB28F"/>
</linearGradient>
</defs>
</svg>
