<svg width="32" height="32" viewBox="0 0 32 32" fill="none" xmlns="http://www.w3.org/2000/svg">
<path fill-rule="evenodd" clip-rule="evenodd" d="M27.2671 13.3333C27.2671 14.8 26.0671 16 24.6005 16H7.26709C5.80042 16 4.60042 14.8 4.60042 13.3333V3.82699L15.4267 10.1954C15.7397 10.3795 16.1278 10.3795 16.4409 10.1954L27.2671 3.82703V13.3333ZM7.26709 0C6.16735 0 5.21754 0.674681 4.81113 1.63057L15.9338 8.17331L27.0565 1.6306C26.6499 0.674693 25.7002 0 24.6005 0H7.26709ZM14.667 20.6V18H17.3337V20.6H25.0003C27.2317 20.6 29.0003 22.4531 29.0003 24.6611V24.9167C30.3661 25.45 31.3337 26.7787 31.3337 28.3333C31.3337 30.3584 29.6921 32 27.667 32C25.6419 32 24.0003 30.3584 24.0003 28.3333C24.0003 26.7787 24.9679 25.45 26.3337 24.9167V24.6611C26.3337 23.8685 25.7023 23.2667 25.0003 23.2667H17.3337V24.9167C18.6994 25.45 19.667 26.7787 19.667 28.3333C19.667 30.3584 18.0254 32 16.0003 32C13.9753 32 12.3337 30.3584 12.3337 28.3333C12.3337 26.7787 13.3012 25.45 14.667 24.9167V23.2667H7.00033C6.29837 23.2667 5.66699 23.8685 5.66699 24.6611V24.9167C7.03278 25.45 8.00033 26.7787 8.00033 28.3333C8.00033 30.3584 6.3587 32 4.33366 32C2.30862 32 0.666992 30.3584 0.666992 28.3333C0.666992 26.7787 1.63454 25.45 3.00033 24.9167V24.6611C3.00033 22.4531 4.76895 20.6 7.00033 20.6H14.667Z" fill="black"/>
<path fill-rule="evenodd" clip-rule="evenodd" d="M27.2671 13.3333C27.2671 14.8 26.0671 16 24.6005 16H7.26709C5.80042 16 4.60042 14.8 4.60042 13.3333V3.82699L15.4267 10.1954C15.7397 10.3795 16.1278 10.3795 16.4409 10.1954L27.2671 3.82703V13.3333ZM7.26709 0C6.16735 0 5.21754 0.674681 4.81113 1.63057L15.9338 8.17331L27.0565 1.6306C26.6499 0.674693 25.7002 0 24.6005 0H7.26709ZM14.667 20.6V18H17.3337V20.6H25.0003C27.2317 20.6 29.0003 22.4531 29.0003 24.6611V24.9167C30.3661 25.45 31.3337 26.7787 31.3337 28.3333C31.3337 30.3584 29.6921 32 27.667 32C25.6419 32 24.0003 30.3584 24.0003 28.3333C24.0003 26.7787 24.9679 25.45 26.3337 24.9167V24.6611C26.3337 23.8685 25.7023 23.2667 25.0003 23.2667H17.3337V24.9167C18.6994 25.45 19.667 26.7787 19.667 28.3333C19.667 30.3584 18.0254 32 16.0003 32C13.9753 32 12.3337 30.3584 12.3337 28.3333C12.3337 26.7787 13.3012 25.45 14.667 24.9167V23.2667H7.00033C6.29837 23.2667 5.66699 23.8685 5.66699 24.6611V24.9167C7.03278 25.45 8.00033 26.7787 8.00033 28.3333C8.00033 30.3584 6.3587 32 4.33366 32C2.30862 32 0.666992 30.3584 0.666992 28.3333C0.666992 26.7787 1.63454 25.45 3.00033 24.9167V24.6611C3.00033 22.4531 4.76895 20.6 7.00033 20.6H14.667Z" fill="url(#paint0_linear_467_872)"/>
<defs>
<linearGradient id="paint0_linear_467_872" x1="67.6225" y1="-32.9756" x2="-17.5122" y2="-24.3007" gradientUnits="userSpaceOnUse">
<stop/>
<stop offset="0.325" stop-color="#A80601"/>
<stop offset="0.785" stop-color="#EE5A02"/>
<stop offset="1" stop-color="#DDB28F"/>
</linearGradient>
</defs>
</svg>
